<?xml version="1.0" standalone="no"?>
<!DOCTYPE svg PUBLIC "-//W3C//DTD SVG 20010904//EN"
 "http://www.w3.org/TR/2001/REC-SVG-20010904/DTD/svg10.dtd">
<svg version="1.0" xmlns="http://www.w3.org/2000/svg"
 width="600.000000pt" height="200.000000pt" viewBox="0 0 600.000000 200.000000"
 preserveAspectRatio="xMidYMid meet">

<g transform="translate(0.000000,200.000000) scale(0.100000,-0.100000)"
fill="#000000" stroke="none">
<path d="M445 1534 c-112 -25 -111 -33 7 -34 128 0 256 -27 341 -73 55 -28 58
-32 40 -45 -39 -30 -95 -52 -145 -60 -40 -5 -54 -12 -56 -26 -4 -16 1 -17 49
-11 30 4 71 13 91 21 45 15 47 8 14 -45 -23 -36 -92 -81 -125 -81 -22 0 -6
-24 25 -36 59 -24 153 35 212 135 24 41 26 42 39 25 27 -36 46 -125 40 -186
-5 -60 -3 -63 36 -30 22 19 31 10 23 -22 -4 -15 -23 -35 -47 -49 -63 -38 -139
-32 -255 21 -76 35 -102 42 -153 42 -34 0 -61 -4 -61 -10 0 -5 6 -10 14 -10 7
0 26 -17 42 -37 29 -39 42 -52 82 -79 20 -15 24 -15 47 0 25 17 159 23 181 8
6 -4 14 -27 17 -52 4 -25 10 -55 13 -67 11 -39 -48 -41 -135 -6 -10 4 -11 0
-6 -17 7 -22 6 -22 -41 -15 -64 9 -76 21 -44 46 l25 20 -30 -8 c-63 -16 -132
-7 -190 26 -44 25 -55 28 -55 15 0 -58 104 -291 128 -286 7 1 41 5 75 9 56 6
61 5 49 -9 -27 -33 -125 -72 -180 -72 -63 0 -71 8 -65 72 5 54 -13 115 -27 92
-31 -49 -121 155 -105 238 6 31 8 33 23 19 36 -30 38 -27 37 58 0 65 4 88 17
101 15 15 18 15 46 -2 40 -23 59 -9 68 52 7 51 -14 120 -46 149 -26 24 -36 13
-16 -17 15 -21 23 -118 10 -118 -3 0 -34 25 -67 56 -75 67 -170 132 -206 140
-50 11 -51 12 -44 45 7 37 -6 49 -54 49 -32 0 -33 -2 -33 -40 0 -40 0 -40 38
-40 35 0 39 -3 70 -59 17 -32 32 -71 32 -87 0 -16 5 -36 10 -44 8 -13 11 -12
23 4 13 18 16 17 47 -23 18 -22 35 -39 37 -37 7 6 -19 47 -60 95 -57 68 -46
95 20 45 41 -31 71 -89 68 -129 -1 -16 -3 -56 -3 -87 -2 -50 -5 -58 -22 -58
-10 0 -36 15 -56 32 -37 32 -37 32 -31 8 3 -14 15 -67 26 -118 24 -112 61
-192 118 -251 24 -24 43 -53 43 -63 0 -24 -26 -76 -53 -105 -18 -21 -19 -23
-3 -29 18 -7 218 20 276 37 49 15 125 67 144 100 9 15 16 42 16 60 l0 32 -24
-23 c-31 -28 -52 -21 -61 19 -4 17 -11 31 -16 31 -12 0 -12 -57 1 -65 22 -14
10 -35 -20 -35 -33 0 -35 5 -20 44 12 32 9 32 -46 0 -44 -26 -45 -26 -59 -8
-19 25 -19 44 1 65 14 16 14 18 -5 24 -22 7 -29 39 -10 50 6 4 26 4 45 0 26
-4 37 -13 45 -33 5 -15 12 -34 15 -42 4 -12 11 -9 29 13 25 28 52 33 114 21
21 -4 31 -12 31 -25 0 -30 20 -33 48 -6 15 13 43 27 63 31 53 9 63 26 44 71
-22 53 -19 70 17 100 46 39 97 106 104 138 4 18 0 37 -11 54 -16 24 -16 27 5
55 78 106 120 195 120 255 l0 28 -42 -43 c-44 -46 -104 -82 -136 -82 -11 0
-36 18 -56 40 -28 31 -35 46 -30 64 3 13 1 27 -6 31 -7 4 -14 -1 -17 -14 -7
-26 -3 -26 -64 5 -113 57 -292 83 -404 58z m-328 -100 c3 -9 0 -20 -8 -25 -23
-14 -29 -11 -29 16 0 28 27 35 37 9z m994 -102 c-5 -9 -19 -26 -30 -36 -20
-18 -23 -19 -38 -3 -9 9 -15 18 -12 20 4 3 80 35 87 36 1 1 -2 -7 -7 -17z
m-402 -304 c34 -22 34 -23 13 -26 -23 -3 -62 22 -62 40 0 13 10 10 49 -14z"/>
<path d="M154 1445 c-12 -46 38 -74 67 -38 13 15 12 15 -8 5 -14 -8 -24 -9
-28 -2 -3 5 -1 10 6 10 8 0 8 4 -1 15 -10 13 -9 15 11 15 19 0 21 2 9 10 -27
17 -49 11 -56 -15z"/>
<path d="M240 1429 c0 -49 18 -51 22 -2 3 35 4 36 21 19 10 -10 17 -33 17 -54
0 -45 17 -31 22 17 4 45 28 54 28 12 0 -17 5 -31 10 -31 6 0 10 17 10 38 l0
37 -65 2 -65 2 0 -40z"/>
<path d="M386 1454 c-12 -32 -6 -54 18 -60 31 -7 66 11 66 36 0 35 -72 56 -84
24z m62 -27 c2 -12 -3 -17 -17 -17 -15 0 -21 6 -21 21 0 25 33 22 38 -4z"/>
<path d="M487 1463 c-13 -12 -8 -73 6 -73 9 0 12 10 9 30 -3 22 0 30 11 30 20
0 28 -13 29 -50 1 -17 4 -30 8 -30 17 0 19 33 5 66 -10 25 -20 34 -38 34 -13
0 -27 -3 -30 -7z"/>
<path d="M570 1442 c0 -15 5 -33 12 -40 25 -25 78 -8 78 25 0 8 -14 13 -37 14
l-38 2 35 6 c28 5 31 8 17 14 -10 4 -30 7 -43 7 -20 0 -24 -5 -24 -28z m53
-29 c-7 -2 -21 -2 -30 0 -10 3 -4 5 12 5 17 0 24 -2 18 -5z"/>
<path d="M5176 1442 c-57 -14 -72 -22 -90 -49 -12 -17 -44 -50 -72 -72 -29
-22 -61 -53 -73 -70 -22 -31 -49 -156 -36 -169 11 -11 46 40 40 57 -3 9 8 1
25 -18 25 -28 30 -40 25 -63 -4 -15 -4 -42 0 -59 l7 -31 24 23 c13 12 26 30
30 41 8 27 34 22 34 -7 0 -15 6 -25 14 -25 8 0 23 11 34 25 24 30 52 34 45 6
-7 -28 13 -35 37 -11 28 28 45 25 86 -12 33 -31 34 -35 23 -65 -7 -21 -18 -33
-29 -33 -12 0 -20 -10 -24 -31 -5 -27 -9 -30 -31 -25 -21 5 -25 3 -25 -17 0
-56 -51 -63 -69 -9 -16 47 -14 55 27 100 33 37 42 65 18 56 -8 -3 -22 -17 -31
-30 -8 -13 -22 -24 -31 -24 -8 0 -17 -7 -20 -15 -4 -9 -19 -15 -36 -15 -27 0
-30 3 -26 25 7 33 -15 33 -41 -1 -45 -57 -19 -157 67 -264 48 -58 110 -120
120 -120 5 0 14 22 20 50 13 54 52 124 86 151 12 10 45 30 74 45 48 24 59 26
123 20 42 -4 93 -17 125 -31 30 -14 57 -25 61 -25 3 0 3 25 -1 56 -8 69 -42
137 -93 186 -48 46 -157 98 -203 97 -34 0 -34 -1 -10 -11 14 -5 39 -16 56 -23
46 -19 102 -72 125 -116 27 -53 24 -59 -21 -59 -149 0 -276 -75 -337 -197 -14
-29 -29 -53 -33 -53 -4 0 -24 17 -44 38 -42 42 -79 113 -74 139 3 14 11 9 45
-25 l42 -43 51 26 c90 46 190 152 190 202 0 43 -49 78 -137 97 -43 9 -106 19
-140 23 -67 6 -78 13 -88 56 l-7 27 73 0 c72 1 73 1 50 18 -52 38 -110 95
-106 103 13 19 77 28 109 15 50 -21 158 -125 151 -146 -5 -14 3 -18 48 -23 50
-6 156 5 178 18 30 19 -65 71 -153 84 -81 11 -135 34 -175 73 -39 38 -40 43
-10 59 63 35 221 27 313 -15 28 -13 87 -47 129 -75 43 -28 83 -51 89 -51 19 0
130 -56 144 -73 12 -14 6 -18 -47 -33 -66 -18 -75 -28 -35 -38 35 -9 114 -91
143 -149 14 -26 29 -51 34 -54 23 -14 -32 151 -62 189 -19 22 -18 22 20 40 24
10 37 22 34 30 -7 19 -116 90 -202 133 -83 41 -92 50 -58 59 47 12 32 23 -94
68 -78 28 -228 58 -286 57 -27 0 -81 -8 -119 -17z m444 -82 c13 -9 13 -10 0
-10 -8 0 -22 5 -30 10 -13 9 -13 10 0 10 8 0 22 -5 30 -10z m-213 -153 c3 -4
-2 -8 -13 -8 -36 -2 -59 3 -72 15 -11 11 -5 12 32 6 26 -4 49 -10 53 -13z
m-427 4 c0 -5 -7 -11 -15 -15 -15 -5 -20 5 -8 17 9 10 23 9 23 -2z m133 -361
c-5 -20 -15 -25 -26 -13 -8 7 11 33 23 33 5 0 6 -9 3 -20z"/>
<path d="M1535 1395 c-14 -13 -25 -32 -25 -41 0 -14 -2 -14 -16 -3 -12 10 -20
10 -35 1 -17 -11 -19 -9 -19 17 0 39 -19 50 -40 23 -18 -21 -35 -158 -24 -187
7 -17 49 -21 59 -5 4 6 12 4 21 -5 9 -8 20 -15 25 -15 32 0 145 204 127 228
-16 19 -47 14 -73 -13z"/>
<path d="M1685 1409 c-32 -9 -39 -24 -73 -140 -21 -74 -14 -89 41 -89 24 0 51
6 61 13 23 17 11 47 -20 47 -32 0 -30 16 3 32 31 15 44 48 19 48 -27 0 -18 21
14 33 30 11 47 38 35 57 -7 12 -38 12 -80 -1z"/>
<path d="M1850 1407 c-15 -8 -34 -40 -57 -97 -43 -107 -37 -130 31 -130 47 0
70 17 60 44 -3 9 -15 16 -25 16 -10 0 -19 2 -19 4 0 2 13 33 30 68 16 34 30
70 30 79 0 23 -22 30 -50 16z"/>
<path d="M2210 1413 c-77 -14 -134 -163 -82 -215 32 -32 79 -28 113 10 34 37
61 122 52 163 -5 27 -30 51 -50 48 -4 -1 -19 -4 -33 -6z m0 -137 c-13 -41 -40
-68 -40 -42 0 24 42 103 47 89 3 -7 0 -28 -7 -47z"/>
<path d="M2451 1394 c-30 -25 -31 -25 -31 -4 0 35 -49 23 -73 -18 -29 -49 -57
-164 -45 -179 17 -21 37 -15 56 15 22 34 62 39 62 6 0 -26 22 -37 44 -21 16
13 57 192 49 215 -8 19 -29 14 -62 -14z"/>
<path d="M2597 1407 c-21 -9 -34 -26 -49 -67 -22 -61 -36 -130 -30 -148 6 -18
97 -15 116 3 20 21 10 45 -20 45 -33 0 -30 16 6 35 34 18 40 45 10 45 -27 0
-15 28 16 36 26 7 49 38 39 54 -8 13 -54 12 -88 -3z"/>
<path d="M2871 1407 c-43 -15 -63 -45 -40 -59 14 -10 14 -17 -3 -77 -20 -73
-18 -91 11 -91 15 0 26 18 50 79 17 44 42 92 57 106 14 14 24 31 21 38 -5 17
-55 19 -96 4z"/>
<path d="M3050 1407 c-27 -9 -41 -24 -62 -66 -48 -94 -29 -161 46 -161 28 0
41 7 65 37 40 49 59 129 40 169 -16 33 -39 38 -89 21z m19 -108 c-11 -49 -26
-79 -39 -79 -21 0 0 66 32 108 16 19 17 15 7 -29z"/>
<path d="M3341 1407 c-43 -15 -63 -45 -40 -59 14 -10 14 -17 -3 -77 -20 -73
-18 -91 11 -91 15 0 26 18 50 79 17 44 42 92 57 106 14 14 24 31 21 38 -5 17
-55 19 -96 4z"/>
<path d="M3488 1403 c-20 -23 -68 -163 -68 -198 0 -22 4 -26 23 -23 15 2 28
17 41 46 20 44 43 58 32 20 -3 -13 -9 -33 -12 -44 -7 -29 19 -38 44 -16 18 15
72 180 72 217 0 19 -34 20 -49 2 -6 -8 -14 -28 -17 -45 -4 -19 -13 -32 -21
-32 -10 0 -13 6 -8 18 3 9 9 29 12 45 5 22 2 27 -14 27 -11 0 -27 -8 -35 -17z"/>
<path d="M3695 1406 c-23 -10 -36 -28 -54 -75 -13 -34 -25 -81 -25 -104 l-1
-42 45 -3 c52 -3 85 15 74 41 -3 9 -17 17 -30 17 -33 0 -30 16 6 35 31 16 41
45 15 45 -26 0 -17 17 21 39 65 38 21 79 -51 47z"/>
<path d="M3951 1401 c-20 -20 -71 -165 -71 -202 0 -32 48 -26 60 9 14 38 25
55 37 59 7 3 7 -9 -2 -34 -9 -27 -10 -42 -3 -51 18 -21 51 9 66 59 7 24 22 71
32 104 20 61 16 80 -16 73 -12 -2 -25 -20 -34 -46 -8 -23 -21 -42 -28 -42 -10
0 -12 6 -7 18 4 9 10 29 13 45 5 33 -18 37 -47 8z"/>
<path d="M4180 1413 c-78 -15 -135 -163 -83 -215 27 -27 76 -28 104 -2 50 45
80 149 57 194 -14 25 -33 31 -78 23z m1 -131 c-12 -44 -41 -78 -41 -48 0 21
40 100 46 93 3 -3 0 -23 -5 -45z"/>
<path d="M4417 1393 c-27 -27 -27 -27 -27 -5 0 19 -5 23 -27 20 -20 -2 -34
-14 -49 -42 -29 -52 -58 -166 -45 -179 13 -13 49 1 64 26 17 31 57 31 57 1 0
-29 14 -38 38 -25 24 13 59 157 53 219 -2 21 -35 13 -64 -15z"/>
<path d="M4572 1409 c-18 -6 -35 -18 -38 -27 -3 -9 -14 -37 -24 -62 -16 -40
-24 -89 -21 -127 1 -9 18 -13 49 -13 81 0 106 50 32 62 -24 4 -24 5 13 27 40
25 49 51 17 51 -27 0 -15 28 16 36 31 8 48 36 32 52 -14 14 -30 14 -76 1z"/>
<path d="M1975 1377 c-57 -57 -68 -150 -22 -182 41 -29 107 -9 107 32 0 22 -4
24 -32 21 -29 -3 -33 0 -36 22 -1 14 7 36 17 50 19 24 21 24 34 6 18 -25 55
-13 63 21 10 39 -7 58 -55 61 -36 3 -46 -1 -76 -31z"/>
<path d="M2580 1103 c-75 -14 -133 -159 -86 -212 23 -25 72 -28 104 -5 49 34
84 147 60 194 -14 25 -33 31 -78 23z m0 -137 c-13 -41 -40 -68 -40 -42 0 24
42 103 47 89 3 -7 0 -28 -7 -47z"/>
<path d="M2753 1099 c-29 -9 -34 -16 -57 -88 -14 -43 -26 -91 -28 -107 -3 -25
0 -29 21 -29 18 0 27 8 35 33 6 18 23 38 36 45 28 14 40 47 16 47 -10 0 -13 6
-10 15 4 8 12 15 19 15 19 0 47 37 43 57 -4 21 -30 25 -75 12z"/>
<path d="M3005 1098 c-16 -6 -36 -15 -42 -21 -16 -12 -17 -44 -2 -49 7 -2 6
-23 -5 -65 -22 -83 -21 -93 8 -93 24 0 40 28 71 130 4 13 21 37 37 52 17 15
28 33 26 40 -6 17 -55 20 -93 6z"/>
<path d="M3146 1091 c-16 -18 -56 -121 -70 -184 -5 -20 -2 -29 10 -34 24 -9
46 8 59 47 6 19 17 36 25 38 9 3 11 -1 6 -14 -25 -65 -13 -98 26 -72 14 10 30
45 49 113 34 120 34 125 10 125 -22 0 -35 -15 -48 -54 -13 -41 -39 -49 -28
-10 4 16 8 36 9 44 2 22 -28 23 -48 1z"/>
<path d="M3355 1098 c-24 -8 -35 -21 -54 -71 -14 -34 -25 -82 -25 -107 l-1
-45 45 -3 c52 -3 85 15 74 41 -3 9 -17 17 -30 17 -33 0 -30 16 6 35 34 18 40
45 10 45 -29 0 -15 26 21 39 34 12 48 39 28 52 -17 11 -35 10 -74 -3z"/>
<path d="M1431 801 c-17 -11 -61 -145 -61 -188 0 -41 21 -54 64 -39 74 25 116
76 116 141 0 50 -83 110 -119 86z m59 -105 c0 -12 -12 -33 -26 -47 l-26 -24 8
30 c13 54 24 76 34 70 5 -3 10 -16 10 -29z"/>
<path d="M1643 799 c-18 -5 -33 -16 -33 -23 0 -8 -12 -39 -26 -70 -16 -36 -24
-69 -22 -93 3 -37 4 -38 48 -41 52 -3 85 15 74 41 -3 9 -17 17 -30 17 -32 0
-30 16 3 32 31 15 44 48 19 48 -27 0 -18 17 20 39 65 38 27 74 -53 50z"/>
<path d="M1867 783 c-27 -27 -27 -27 -27 -5 0 20 -5 23 -27 20 -22 -2 -33 -13
-51 -49 -30 -61 -50 -155 -35 -170 16 -16 52 -1 58 24 8 31 55 31 55 0 0 -28
14 -37 39 -24 17 10 40 82 54 175 10 62 -20 74 -66 29z"/>
<path d="M2050 803 c-40 -7 -79 -53 -96 -109 -18 -64 -11 -95 27 -118 48 -29
97 -3 130 69 23 50 25 128 3 149 -16 16 -20 17 -64 9z m-11 -150 c-19 -40 -23
-44 -26 -26 -5 26 40 115 45 90 2 -9 -7 -38 -19 -64z"/>
<path d="M2409 795 c-28 -15 -53 -69 -42 -89 3 -6 15 -21 26 -33 22 -25 15
-45 -16 -42 -39 3 -47 -1 -47 -20 0 -30 26 -44 68 -38 68 11 105 83 62 122
-28 26 -25 45 8 45 17 0 32 8 41 22 12 19 11 23 -5 35 -23 17 -62 16 -95 -2z"/>
<path d="M2705 775 c-39 -41 -95 -148 -95 -182 0 -32 38 -30 70 4 25 26 25 26
28 4 4 -25 28 -39 42 -25 15 15 42 173 34 197 -14 47 -37 47 -79 2z m11 -111
c-4 -9 -9 -15 -11 -12 -3 3 -3 13 1 22 4 9 9 15 11 12 3 -3 3 -13 -1 -22z"/>
<path d="M3058 798 c-23 -19 -60 -140 -56 -185 3 -37 4 -38 41 -37 67 2 112
42 128 111 10 47 -3 79 -43 103 -39 23 -49 24 -70 8z m60 -101 c2 -16 -5 -34
-19 -48 -28 -28 -34 -14 -19 41 12 45 33 49 38 7z"/>
<path d="M3357 798 c-15 -12 -77 -183 -77 -213 0 -20 26 -25 48 -9 11 8 23 27
27 44 6 28 21 47 30 38 3 -2 -1 -21 -7 -42 -10 -31 -9 -39 3 -46 28 -18 52 14
76 101 38 141 38 139 15 139 -24 0 -41 -19 -51 -56 -4 -15 -13 -30 -21 -32
-10 -4 -11 1 -6 19 19 61 19 69 -1 69 -11 0 -27 -6 -36 -12z"/>
<path d="M3565 799 c-25 -7 -34 -20 -54 -71 -14 -35 -25 -83 -25 -108 l-1 -45
46 -3 c32 -2 51 2 62 13 21 21 11 45 -19 45 -33 0 -30 16 6 35 34 18 40 45 10
45 -28 0 -15 24 23 41 40 18 45 53 7 56 -14 1 -38 -2 -55 -8z"/>
<path d="M3723 795 c-12 -8 -36 -51 -53 -97 -40 -104 -34 -128 34 -128 47 0
70 17 60 44 -3 9 -17 16 -30 16 l-24 0 35 70 c39 77 42 95 19 104 -20 8 -16 8
-41 -9z"/>
<path d="M3873 795 c-12 -9 -34 -50 -52 -100 -38 -105 -33 -125 32 -125 23 0
48 4 55 9 21 13 10 46 -16 49 -12 2 -22 5 -22 8 0 3 14 32 31 65 43 86 29 134
-28 94z"/>
<path d="M4044 796 c-59 -26 -102 -108 -89 -172 8 -45 40 -61 93 -48 31 7 38
14 40 37 3 27 1 28 -30 25 -27 -2 -34 1 -36 18 -2 11 7 33 19 48 19 24 23 26
31 12 12 -22 45 -20 58 3 16 31 12 59 -12 75 -27 19 -34 19 -74 2z"/>
<path d="M4215 775 c-39 -41 -98 -157 -93 -183 5 -25 35 -26 65 -2 l28 22 3
-21 c4 -25 47 -30 56 -6 15 41 30 187 20 203 -19 29 -44 25 -79 -13z"/>
<path d="M4385 795 c-22 -8 -41 -15 -42 -15 -9 0 -1 -49 7 -52 7 -2 6 -23 -5
-63 -21 -82 -20 -95 9 -95 24 0 40 28 71 130 4 13 21 37 37 52 17 15 28 33 26
40 -6 19 -57 20 -103 3z"/>
<path d="M4547 794 c-50 -27 -60 -82 -22 -120 31 -31 25 -44 -20 -44 -42 0
-53 -15 -29 -42 15 -16 27 -19 58 -15 74 10 105 73 62 124 -27 33 -25 43 9 43
12 0 30 8 39 19 16 17 16 20 1 35 -20 20 -61 20 -98 0z"/>
<path d="M2294 792 c-6 -4 -18 -20 -27 -37 l-16 -30 -11 33 c-21 56 -56 34
-83 -53 -24 -75 -30 -122 -18 -129 17 -11 50 12 57 41 l7 25 13 -31 c15 -37
38 -40 58 -8 24 35 68 167 62 183 -6 15 -24 18 -42 6z"/>
<path d="M2941 774 c-12 -15 -21 -34 -22 -43 0 -9 -6 0 -13 19 -30 82 -72 27
-110 -142 -6 -25 -3 -28 18 -28 16 0 28 9 38 31 l15 31 11 -31 c11 -31 26 -38
50 -23 16 10 72 158 72 190 0 31 -33 29 -59 -4z"/>
<path d="M5779 672 c-1 -4 0 -23 1 -42 2 -45 20 -65 20 -23 0 42 10 64 24 56
6 -3 8 -2 3 2 -10 12 -47 17 -48 7z"/>
<path d="M5310 635 c0 -24 5 -35 15 -35 9 0 15 9 15 21 0 30 24 18 31 -17 4
-16 7 -21 8 -10 1 14 6 17 22 13 23 -6 49 1 49 13 0 5 -9 6 -20 3 -11 -3 -20
0 -20 6 0 6 6 11 13 11 8 0 8 3 -2 9 -11 7 -9 10 10 14 20 3 18 5 -8 6 -27 1
-32 -3 -36 -26 l-4 -28 -2 28 c0 17 -7 27 -17 27 -8 0 -12 -4 -9 -10 3 -5 1
-10 -4 -10 -6 0 -11 5 -11 10 0 6 -7 10 -15 10 -10 0 -15 -11 -15 -35z"/>
<path d="M5472 638 c3 -31 31 -48 44 -27 3 5 -2 9 -10 9 -10 0 -16 9 -16 25 0
14 -5 25 -11 25 -6 0 -9 -14 -7 -32z"/>
<path d="M5540 641 c0 -35 8 -41 35 -30 17 6 17 8 3 8 -12 1 -18 9 -18 26 0
14 -4 25 -10 25 -5 0 -10 -13 -10 -29z"/>
<path d="M5614 655 c-10 -26 4 -45 33 -44 27 0 27 1 6 9 -13 5 -23 16 -23 24
0 8 10 17 23 19 19 4 18 4 -6 6 -16 0 -30 -5 -33 -14z"/>
<path d="M5691 644 c-6 -15 -8 -36 -4 -48 6 -18 8 -16 13 14 3 19 10 34 16 33
6 -1 11 5 11 13 0 23 -23 16 -36 -12z"/>
<path d="M5740 640 c0 -16 5 -30 10 -30 6 0 10 14 10 30 0 17 -4 30 -10 30 -5
0 -10 -13 -10 -30z"/>
<path d="M5850 655 c0 -10 10 -15 30 -15 35 0 40 -16 8 -23 -16 -4 -13 -5 7
-4 20 1 31 8 33 20 3 13 -4 17 -30 18 l-33 1 30 8 c30 8 30 8 -7 9 -28 1 -38
-3 -38 -14z"/>
</g>
</svg>
